Coordinates
version=1
nRows=43
nColumns=12
inDegrees=yes

Units are S.I. units (second, meters, Newtons, ...)
Angles are in degrees

endheader
time	SC_y	SC_z	SC_x	AC_y	AC_z	AC_x	GH_y	GH_z	GH_yy	EL_x	PS_y
       0.0              -27.23          18.51          70.78          30.32         -11.87          19.18         -158.6          15.83          167.0          53.83          144.3
   0.03971              -27.23          18.51          70.78          30.32         -11.87          19.18         -158.6          15.82          167.0          53.82          144.3
   0.07941              -27.24          18.51          70.78          30.32         -11.87          19.18         -158.6          15.82          166.9          53.82          144.3
    0.1191              -27.24          18.51          70.78          30.33         -11.87          19.18         -158.6          15.82          166.9          53.82          144.3
    0.1588              -27.25          18.51          70.79          30.33         -11.86          19.18         -158.5          15.81          166.8          53.82          144.3
    0.1985              -27.25          18.51          70.79          30.33         -11.86          19.18         -158.5          15.81          166.8          53.81          144.3
    0.2382              -27.26          18.51          70.79          30.33         -11.86          19.18         -158.5           15.8          166.7          53.81          144.3
    0.2779              -27.26          18.51          70.79          30.33         -11.86          19.18         -158.4           15.8          166.7          53.81          144.3
    0.3176              -27.27          18.51           70.8          30.33         -11.85          19.18         -158.4          15.79          166.6           53.8          144.3
    0.3574              -27.28          18.51           70.8          30.34         -11.85          19.18         -158.3          15.79          166.6           53.8          144.3
    0.3971              -27.28          18.51           70.8          30.34         -11.85          19.18         -158.3          15.78          166.5           53.8          144.3
    0.4368              -27.29          18.51          70.81          30.34         -11.85          19.17         -158.2          15.78          166.4          53.79          144.3
    0.4765               -27.3          18.51          70.81          30.35         -11.84          19.17         -158.2          15.77          166.3          53.79          144.3
    0.5162              -27.31          18.51          70.82          30.35         -11.84          19.17         -158.1          15.76          166.3          53.78          144.3
    0.5559              -27.32          18.51          70.82          30.35         -11.84          19.17         -158.0          15.75          166.2          53.78          144.3
    0.5956              -27.33          18.51          70.83          30.36         -11.83          19.17         -158.0          15.75          166.1          53.77          144.3
    0.6353              -27.34          18.51          70.83          30.36         -11.83          19.17         -157.9          15.74          165.9          53.77          144.3
     0.675              -27.36          18.51          70.84          30.36         -11.82          19.17         -157.8          15.73          165.8          53.76          144.3
    0.7147              -27.37          18.51          70.84          30.37         -11.82          19.17         -157.7          15.71          165.7          53.75          144.3
    0.7544              -27.39          18.51          70.85          30.37         -11.81          19.17         -157.6           15.7          165.6          53.75          144.3
    0.7941              -27.41          18.51          70.86          30.38          -11.8          19.16         -157.5          15.69          165.4          53.74          144.3
    0.8338              -27.43          18.51          70.87          30.39          -11.8          19.16         -157.4          15.67          165.2          53.73          144.3
    0.8735              -27.45          18.51          70.88          30.39         -11.79          19.16         -157.2          15.66          165.0          53.72          144.3
    0.9132              -27.47          18.51          70.89           30.4         -11.78          19.16         -157.1          15.64          164.8          53.71          144.3
    0.9529               -27.5          18.51           70.9          30.41         -11.77          19.16         -156.9          15.62          164.6          53.69          144.3
    0.9926              -27.53          18.51          70.92          30.42         -11.76          19.15         -156.7           15.6          164.3          53.68          144.4
     1.032              -27.56          18.51          70.93          30.43         -11.75          19.15         -156.5          15.57          164.0          53.66          144.4
     1.072               -27.6          18.51          70.95          30.44         -11.74          19.15         -156.3          15.55          163.7          53.64          144.4
     1.112              -27.64          18.51          70.97          30.46         -11.72          19.14         -156.0          15.51          163.3          53.62          144.4
     1.151              -27.68          18.51          70.99          30.47          -11.7          19.14         -155.7          15.48          162.9           53.6          144.4
     1.191              -27.74          18.51          71.01          30.49         -11.68          19.13         -155.3          15.44          162.4          53.57          144.4
     1.231               -27.8          18.51          71.04          30.51         -11.66          19.13         -154.9          15.39          161.9          53.54          144.4
     1.271              -27.87          18.52          71.08          30.53         -11.63          19.12         -154.5          15.34          161.2          53.51          144.4
      1.31              -27.96          18.52          71.11          30.56          -11.6          19.11         -153.9          15.27          160.5          53.47          144.4
      1.35              -28.05          18.52          71.16          30.59         -11.57          19.11         -153.3           15.2          159.6          53.42          144.5
      1.39              -28.17          18.52          71.21          30.63         -11.53          19.09         -152.6          15.11          158.6          53.36          144.5
     1.429               -28.3          18.52          71.28          30.68         -11.48          19.08         -151.7          15.01          157.3           53.3          144.5
     1.469              -28.47          18.52          71.35          30.73         -11.42          19.07         -150.6          14.88          155.9          53.22          144.5
     1.509              -28.66          18.53          71.44           30.8         -11.34          19.05         -149.4          14.73          154.1          53.12          144.6
     1.549              -28.91          18.53          71.56          30.88         -11.25          19.03         -147.8          14.55          151.9           53.0          144.6
     1.588               -29.2          18.54          71.69          30.97         -11.15           19.0         -145.9          14.33          149.2          52.85          144.7
     1.628              -29.58          18.54          71.87           31.1         -11.01          18.97         -143.5          14.04          145.9          52.67          144.7
     1.668              -30.04          18.55          72.08          31.25         -10.84          18.92         -140.5          13.69          141.7          52.44          144.8
